<?xml version="1.0" standalone="no"?>
<!DOCTYPE svg PUBLIC "-//W3C//DTD SVG 20010904//EN"
 "http://www.w3.org/TR/2001/REC-SVG-20010904/DTD/svg10.dtd">
<svg version="1.0" xmlns="http://www.w3.org/2000/svg"
 width="512.000000pt" height="512.000000pt" viewBox="0 0 512.000000 512.000000"
 preserveAspectRatio="xMidYMid meet">

<g transform="translate(0.000000,512.000000) scale(0.100000,-0.100000)"
fill="#000000" stroke="none">
<path d="M1315 5105 c-22 -8 -56 -32 -76 -53 -34 -35 -58 -104 -344 -963
l-309 -926 303 -1514 c245 -1228 307 -1522 327 -1556 17 -30 39 -49 77 -67
l53 -26 829 2 c820 3 830 3 870 24 88 46 63 -57 394 1604 166 828 301 1516
301 1530 0 34 -595 1816 -623 1865 -14 24 -40 50 -67 65 l-45 25 -825 2 c-693
2 -831 0 -865 -12z m1045 -1360 l0 -395 295 0 295 0 0 -200 0 -200 -295 0
-295 0 0 -590 0 -590 -195 0 -195 0 0 590 0 590 -295 0 -295 0 0 200 0 200
295 0 295 0 0 395 0 395 195 0 195 0 0 -395z"/>
<path d="M3241 5093 c39 -20 60 -39 76 -68 24 -43 608 -1786 618 -1846 5 -26
-75 -443 -295 -1545 -334 -1672 -306 -1562 -399 -1611 l-44 -23 289 0 290 0
52 26 c37 18 59 38 76 67 20 34 82 332 327 1556 l303 1514 -309 926 c-304 913
-308 927 -349 967 -24 25 -57 46 -81 53 -25 7 -147 11 -324 11 l-285 0 55 -27z"/>
</g>
</svg>
