<?xml version="1.0" standalone="no"?>
<!DOCTYPE svg PUBLIC "-//W3C//DTD SVG 20010904//EN"
 "http://www.w3.org/TR/2001/REC-SVG-20010904/DTD/svg10.dtd">
<svg version="1.0" xmlns="http://www.w3.org/2000/svg"
 width="219.000000pt" height="240.000000pt" viewBox="0 0 219.000000 240.000000"
 preserveAspectRatio="xMidYMid meet">

<g transform="translate(0.000000,240.000000) scale(0.100000,-0.100000)"
fill="#000000" stroke="none">
<path d="M1067 2374 c-4 -4 -7 -18 -7 -30 0 -39 -31 -47 -62 -17 l-28 26 -36
-19 c-33 -18 -35 -22 -31 -56 6 -45 -7 -60 -39 -46 -32 15 -51 5 -71 -37 -16
-34 -16 -36 6 -59 30 -32 24 -59 -14 -66 -58 -10 -62 -103 -4 -115 39 -9 49
-34 21 -53 -52 -35 1 -132 56 -103 28 15 41 -4 35 -49 -5 -35 -3 -40 25 -54
42 -21 57 -20 74 6 13 20 18 21 41 11 17 -8 27 -21 29 -40 3 -25 8 -28 41 -31
44 -4 67 11 67 43 0 33 34 38 59 9 25 -29 27 -29 69 -4 31 19 33 23 27 59 -7
44 4 58 35 41 28 -15 55 -5 68 26 17 36 15 62 -7 73 -31 17 -16 58 25 66 33 6
34 7 34 54 0 50 -9 61 -51 61 -25 0 -25 32 1 55 26 24 25 43 -3 79 -22 27 -26
28 -55 18 -36 -12 -58 3 -42 28 19 29 11 59 -20 75 -38 20 -49 19 -75 -5 -30
-28 -63 -17 -67 24 -3 29 -6 31 -48 34 -25 2 -49 0 -53 -4z m77 -47 c5 -29 12
-36 48 -46 39 -12 42 -12 62 14 19 23 23 25 41 12 17 -13 18 -18 7 -43 -12
-25 -11 -30 16 -56 26 -27 31 -28 56 -17 23 11 29 10 37 -2 14 -22 11 -37 -12
-53 -19 -13 -20 -19 -12 -53 8 -33 13 -38 41 -41 28 -3 32 -7 32 -32 0 -25 -4
-29 -32 -32 -30 -3 -34 -7 -42 -47 -8 -39 -7 -45 14 -61 19 -14 21 -20 11 -38
-14 -26 -13 -25 -45 -11 -20 9 -29 8 -50 -7 -27 -20 -32 -44 -16 -75 9 -16 7
-21 -14 -31 -23 -10 -28 -8 -46 15 -18 23 -23 24 -55 14 -28 -8 -36 -16 -41
-44 -6 -30 -10 -34 -33 -31 -21 2 -27 9 -29 34 -3 27 -9 33 -45 44 -39 12 -42
11 -62 -14 -19 -24 -22 -25 -42 -11 -19 13 -20 19 -10 45 10 26 8 32 -13 55
-13 14 -29 24 -35 22 -46 -18 -54 -17 -65 3 -9 17 -7 24 15 43 23 20 24 25 15
59 -9 31 -15 37 -43 40 -27 2 -32 7 -32 28 0 21 5 26 32 28 28 3 34 8 43 40
14 51 13 60 -10 72 -43 23 -11 69 34 48 24 -10 30 -9 53 14 23 23 24 30 15 57
-10 27 -8 32 10 42 18 10 25 8 40 -11 15 -18 24 -21 58 -15 35 6 40 10 40 34
0 33 7 41 36 41 17 0 23 -7 28 -33z"/>
<path d="M1055 2261 c-71 -18 -132 -66 -168 -136 -29 -56 -29 -164 1 -221 24
-47 81 -100 128 -120 52 -22 157 -18 207 7 58 29 85 56 113 111 32 63 33 162
3 224 -50 104 -173 162 -284 135z m162 -40 c90 -45 144 -153 123 -246 -11 -51
-39 -105 -53 -105 -19 0 -103 24 -114 32 -8 7 -11 4 -10 -10 0 -10 6 -19 12
-19 38 0 64 -5 79 -16 18 -13 16 -15 -15 -35 -61 -37 -120 -46 -183 -28 -30 9
-68 27 -83 40 l-27 23 36 12 c19 6 43 8 53 5 12 -5 16 -4 12 3 -17 27 5 43 58
43 48 0 56 4 95 41 41 40 42 43 37 91 -6 49 -43 128 -60 128 -4 0 -15 7 -23
15 -25 24 -88 19 -122 -10 -53 -44 -84 -187 -44 -199 20 -7 57 -70 48 -84 -3
-5 -22 -13 -42 -16 -19 -4 -42 -10 -49 -12 -9 -4 -21 9 -35 35 -50 100 -32
200 50 274 27 24 63 49 82 55 46 15 128 8 175 -17z m-71 -41 c6 0 20 -18 33
-40 l22 -40 -27 -10 c-36 -14 -77 -4 -115 27 -24 21 -27 28 -17 40 17 21 49
33 73 28 11 -3 25 -5 31 -5z m-116 -71 c0 -5 -7 -9 -15 -9 -9 0 -12 6 -9 15 6
15 24 11 24 -6z m113 -39 l47 0 0 -37 c0 -71 -8 -83 -54 -84 -32 0 -37 -2 -21
-9 17 -7 15 -9 -13 -9 -53 -1 -82 35 -82 103 0 60 10 70 50 49 14 -7 46 -13
73 -13z m-143 -31 c0 -24 -4 -38 -10 -34 -17 10 -11 75 7 75 2 0 3 -18 3 -41z
m228 -3 c-2 -15 -7 -28 -13 -29 -12 -2 -19 38 -10 60 9 25 27 1 23 -31z"/>
<path d="M1068 1863 c7 -3 16 -2 19 1 4 3 -2 6 -13 5 -11 0 -14 -3 -6 -6z"/>
<path d="M1118 1863 c6 -2 18 -2 25 0 6 3 1 5 -13 5 -14 0 -19 -2 -12 -5z"/>
<path d="M337 1821 c-139 -148 -234 -330 -279 -536 -8 -36 -12 -121 -12 -215
1 -133 5 -169 27 -252 100 -377 387 -664 765 -765 87 -24 115 -27 267 -27 152
0 180 3 267 26 507 137 841 617 788 1133 -25 246 -129 471 -298 642 l-67 68
-5 -150 c-3 -82 -9 -156 -13 -162 -12 -18 -1327 -19 -1345 -1 -8 8 -12 58 -12
160 0 81 -4 148 -9 148 -5 0 -38 -31 -74 -69z m361 -573 c5 -7 12 -22 14 -33
4 -29 -37 -34 -45 -6 -7 26 -27 27 -27 2 0 -11 15 -28 34 -41 58 -35 61 -97 7
-120 -45 -18 -91 10 -91 58 0 32 36 30 44 -3 4 -14 13 -25 21 -25 27 0 15 34
-25 71 -42 39 -50 68 -24 93 18 19 77 21 92 4z m472 -8 c0 -13 -7 -20 -20 -20
-13 0 -20 7 -20 20 0 13 7 20 20 20 13 0 20 -7 20 -20z m218 3 c5 -17 -26 -29
-40 -15 -6 6 -7 15 -3 22 9 14 37 9 43 -7z m-540 -45 c7 -7 12 -27 12 -45 0
-31 -2 -33 -35 -33 -28 0 -35 -4 -35 -20 0 -11 7 -20 15 -20 8 0 15 7 15 15 0
8 9 15 20 15 23 0 27 -29 8 -48 -20 -20 -76 -15 -88 7 -16 30 -12 107 6 125
18 19 65 21 82 4z m122 -15 c0 -14 -6 -23 -15 -23 -12 0 -15 -13 -15 -55 0
-48 -2 -55 -20 -55 -18 0 -20 7 -20 80 l0 79 35 -1 c30 -1 35 -5 35 -25z m64
-23 c9 -48 11 -47 21 13 4 28 11 37 25 37 24 0 24 2 3 -87 -15 -64 -19 -73
-39 -73 -23 0 -25 2 -44 80 -6 25 -14 53 -17 63 -4 15 0 18 18 15 19 -2 25
-12 33 -48z m136 -30 c0 -73 -2 -80 -20 -80 -18 0 -20 7 -20 80 0 73 2 80 20
80 18 0 20 -7 20 -80z m130 61 c15 -29 12 -41 -10 -41 -11 0 -20 7 -20 15 0 8
-4 15 -10 15 -5 0 -10 -22 -10 -50 0 -27 5 -50 10 -50 6 0 10 9 10 21 0 26 33
22 38 -4 5 -26 -16 -47 -47 -47 -40 0 -51 18 -51 80 0 31 5 61 12 68 19 19 66
15 78 -7z m85 -61 c0 -68 -2 -75 -20 -75 -18 0 -20 8 -23 64 -4 75 2 94 25 89
15 -3 18 -15 18 -78z m133 68 c18 -18 15 -123 -3 -138 -22 -19 -66 -15 -83 6
-17 24 -11 122 9 135 20 13 63 11 77 -3z m136 -4 c20 -20 20 -33 1 -41 -9 -3
-22 2 -30 13 -7 11 -17 16 -21 11 -4 -4 10 -22 32 -41 35 -30 37 -36 27 -58
-13 -29 -39 -39 -71 -27 -28 10 -39 36 -23 52 10 9 15 8 25 -5 13 -18 36 -24
36 -10 0 4 -16 20 -35 35 -36 29 -44 54 -23 75 17 17 64 15 82 -4z m-839 -285
c0 -7 -8 -15 -17 -17 -18 -3 -25 18 -11 32 10 10 28 1 28 -15z m195 1 c0 -11
-7 -20 -15 -20 -8 0 -15 9 -15 20 0 11 7 20 15 20 8 0 15 -9 15 -20z m-262
-87 l-3 -97 -41 -3 c-49 -3 -64 10 -70 64 -6 52 14 88 49 88 22 -1 27 4 27 22
0 16 6 23 20 23 20 0 21 -5 18 -97z m740 0 c-2 -79 -6 -98 -18 -98 -12 0 -16
19 -18 98 -3 92 -2 97 18 97 20 0 21 -5 18 -97z m-900 48 c8 -5 17 -37 22 -72
8 -65 0 -93 -21 -72 -9 9 -16 9 -30 0 -27 -17 -54 3 -54 39 0 23 7 32 32 44
34 15 44 40 18 40 -8 0 -15 -4 -15 -10 0 -5 -9 -10 -20 -10 -24 0 -26 13 -4
34 17 17 51 21 72 7z m227 -72 c0 -59 -3 -74 -15 -74 -11 0 -16 15 -18 64 -3
71 2 95 21 88 8 -2 12 -27 12 -78z m116 71 c20 -11 27 -50 8 -50 -7 0 -17 7
-24 17 -18 24 -35 7 -35 -37 0 -44 17 -61 35 -37 15 21 35 22 35 3 0 -20 -28
-46 -49 -46 -38 0 -56 26 -56 80 0 69 34 97 86 70z m79 -70 c0 -64 -3 -80 -15
-80 -12 0 -15 16 -15 80 0 64 3 80 15 80 12 0 15 -16 15 -80z m124 64 c26 -25
25 -98 -1 -126 -37 -41 -93 -4 -93 60 0 69 54 107 94 66z m146 1 c17 -21 9
-140 -10 -140 -11 0 -16 15 -18 63 -2 45 -7 62 -17 62 -10 0 -15 -17 -17 -62
-2 -48 -7 -63 -18 -63 -11 0 -16 15 -18 64 -2 35 -1 69 1 75 7 17 83 18 97 1z
m128 3 c7 -7 12 -35 12 -63 0 -28 5 -56 12 -63 14 -14 15 -13 -37 -17 -52 -4
-72 2 -77 23 -9 31 9 60 41 67 17 4 31 13 31 21 0 16 -26 19 -35 4 -9 -15 -35
-12 -35 5 0 29 64 47 88 23z m206 -7 c10 -11 16 -30 14 -43 -2 -18 -10 -24
-35 -26 -25 -2 -33 -8 -33 -23 0 -22 25 -26 34 -4 6 18 36 20 36 3 0 -20 -32
-48 -56 -48 -30 0 -54 36 -54 80 0 69 55 104 94 61z m131 -3 c14 -21 14 -23
-2 -27 -9 -2 -19 2 -21 8 -5 16 -32 14 -32 -3 0 -8 11 -17 25 -20 14 -4 31
-18 37 -31 22 -48 -48 -88 -86 -49 -9 8 -16 22 -16 30 0 19 26 18 34 -1 7 -19
36 -20 36 -1 0 8 -12 21 -27 28 -41 20 -51 43 -29 67 25 27 61 27 81 -1z"/>
<path d="M797 1173 c-12 -11 -8 -23 8 -23 8 0 15 7 15 15 0 16 -12 20 -23 8z"/>
<path d="M1467 1173 c-4 -3 -7 -26 -7 -50 0 -32 4 -43 15 -43 11 0 15 12 15
50 0 46 -7 60 -23 43z"/>
<path d="M674 836 c-10 -27 0 -81 16 -81 11 0 16 13 18 48 2 37 0 47 -13 47
-8 0 -18 -6 -21 -14z"/>
<path d="M545 787 c-19 -15 -13 -37 11 -37 8 0 14 10 14 25 0 29 0 29 -25 12z"/>
<path d="M1080 800 c0 -44 3 -51 18 -48 13 3 17 13 17 48 0 35 -4 45 -17 48
-15 3 -18 -4 -18 -48z"/>
<path d="M1368 789 c-22 -12 -24 -39 -3 -39 16 0 29 22 23 39 -2 6 -9 6 -20 0z"/>
<path d="M1560 835 c0 -8 7 -15 15 -15 8 0 15 7 15 15 0 8 -7 15 -15 15 -8 0
-15 -7 -15 -15z"/>
</g>
</svg>
