<?xml version="1.0" standalone="no"?>
<!DOCTYPE svg PUBLIC "-//W3C//DTD SVG 20010904//EN"
 "http://www.w3.org/TR/2001/REC-SVG-20010904/DTD/svg10.dtd">
<svg version="1.0" xmlns="http://www.w3.org/2000/svg"
 width="500.000000pt" height="500.000000pt" viewBox="0 0 500.000000 500.000000"
 preserveAspectRatio="xMidYMid meet">

<g transform="translate(0.000000,500.000000) scale(0.100000,-0.100000)"
fill="#000000" stroke="none">
<path d="M472 2463 l3 -898 2 892 3 893 438 3 437 2 -442 3 -443 2 2 -897z"/>
<path d="M4082 3263 l438 -3 3 -888 2 -887 3 893 2 892 -442 -2 -443 -3 437
-2z"/>
<path d="M3927 2859 c-21 -12 -22 -32 -3 -62 26 -40 147 -347 141 -357 -4 -6
11 -10 35 -10 l40 0 -17 27 c-10 14 -54 113 -98 219 -71 168 -83 191 -98 183z"/>
<path d="M910 2840 c7 -14 10 -85 8 -206 -2 -151 -6 -186 -18 -194 -11 -7 1
-10 38 -10 49 0 52 1 38 16 -14 13 -16 47 -16 215 l0 199 -30 0 c-28 0 -30 -2
-20 -20z"/>
<path d="M1130 2853 c8 -3 23 -12 33 -21 15 -14 17 -13 17 6 0 18 -6 22 -32
21 -18 0 -26 -3 -18 -6z"/>
<path d="M1250 2841 c5 -11 10 -82 10 -158 0 -112 3 -145 18 -172 22 -45 58
-70 107 -76 36 -5 37 -4 11 4 -41 14 -74 49 -86 90 -14 53 -13 304 2 319 9 9
3 12 -30 12 -39 0 -42 -2 -32 -19z"/>
<path d="M1557 2848 c6 -7 12 -19 15 -27 2 -8 8 -4 16 13 11 24 10 26 -14 26
-20 0 -24 -3 -17 -12z"/>
<path d="M1688 2831 c9 -16 82 -114 162 -217 l145 -188 2 75 c2 41 4 138 5
217 l3 142 -23 0 c-21 0 -22 -1 -8 -16 13 -13 16 -43 16 -177 0 -88 -4 -157
-8 -151 -5 5 -67 84 -137 177 -101 130 -134 167 -152 167 -22 0 -22 0 -5 -29z"/>
<path d="M2100 2840 c7 -14 10 -85 8 -206 -2 -151 -6 -186 -18 -194 -10 -6 37
-10 136 -10 l152 0 6 31 c10 51 7 56 -14 22 -23 -39 -43 -45 -140 -41 l-75 3
-2 110 c-1 61 -2 154 -3 208 l0 97 -30 0 c-28 0 -30 -2 -20 -20z"/>
<path d="M2326 2841 c18 -11 34 -25 37 -33 3 -7 6 2 6 20 1 31 -1 32 -36 32
l-38 0 31 -19z"/>
<path d="M2471 2828 c15 -55 11 -338 -5 -370 l-15 -28 47 0 c36 0 43 3 34 12
-9 9 -12 70 -12 215 l0 203 -29 0 c-29 0 -29 -1 -20 -32z"/>
<path d="M2627 2845 c39 -16 53 -42 53 -93 0 -26 -6 -45 -20 -57 -26 -23 -20
-29 14 -13 47 21 69 85 45 130 -12 22 -67 48 -101 48 -20 -1 -19 -3 9 -15z"/>
<path d="M2974 2852 c-8 -5 13 -66 68 -197 43 -104 77 -198 74 -207 -3 -15 3
-18 41 -18 l46 0 -19 21 c-10 11 -55 106 -99 211 -44 105 -84 193 -90 195 -5
1 -15 -1 -21 -5z"/>
<path d="M3250 2841 c6 -12 10 -95 10 -200 0 -150 -3 -182 -16 -195 -14 -15
-11 -16 36 -16 47 0 50 1 36 16 -14 13 -16 47 -16 215 l0 199 -30 0 c-27 0
-30 -2 -20 -19z"/>
<path d="M3407 2845 c62 -27 79 -109 33 -155 -17 -17 -17 -20 -4 -20 8 0 29
13 45 29 31 31 38 75 18 113 -12 22 -67 48 -101 48 -20 -1 -18 -3 9 -15z"/>
<path d="M3630 2840 c7 -14 10 -85 8 -206 -2 -151 -6 -186 -18 -194 -11 -7 1
-10 38 -10 49 0 52 1 38 16 -13 13 -16 45 -16 195 0 105 4 188 10 200 10 17 7
19 -30 19 -38 0 -40 -1 -30 -20z"/>
<path d="M2322 2690 c-7 -12 -24 -20 -40 -21 l-27 -1 30 -9 c16 -5 36 -16 42
-26 11 -14 13 -10 13 30 0 26 -1 47 -3 47 -1 0 -8 -9 -15 -20z"/>
<path d="M1105 2679 c-27 -17 -28 -19 -8 -19 12 0 27 -8 32 -17 8 -15 10 -11
11 20 0 20 -1 37 -2 36 -2 0 -16 -9 -33 -20z"/>
<path d="M2600 2660 c-8 -5 -10 -10 -5 -10 6 0 17 5 25 10 8 5 11 10 5 10 -5
0 -17 -5 -25 -10z"/>
<path d="M2662 2573 c21 -43 38 -83 38 -89 0 -5 9 -20 20 -32 16 -17 32 -22
74 -22 52 0 53 0 48 27 l-5 27 -15 -22 c-16 -24 -44 -29 -60 -9 -5 6 -24 47
-42 90 -24 58 -39 81 -61 92 -15 8 -30 15 -31 15 -2 0 13 -35 34 -77z"/>
<path d="M3413 2632 c9 -10 30 -51 47 -92 36 -86 54 -110 87 -110 22 0 23 0 4
19 -10 10 -29 47 -42 81 -26 68 -67 120 -95 120 -16 0 -16 -1 -1 -18z"/>
<path d="M1691 2480 c0 -15 -6 -31 -13 -38 -9 -9 -3 -12 27 -12 38 0 39 1 18
15 -12 8 -24 25 -26 38 -4 20 -4 20 -6 -3z"/>
<path d="M3755 2450 c-18 -20 -17 -20 15 -20 29 0 31 2 19 18 -7 9 -14 18 -15
20 0 1 -9 -7 -19 -18z"/>
<path d="M2775 2284 c-9 -14 -15 -15 -32 -5 -34 18 -81 14 -93 -8 -14 -28 -12
-36 5 -21 13 11 23 10 56 0 46 -15 67 -8 80 28 10 26 -1 29 -16 6z"/>
<path d="M2124 2154 c-85 -205 -109 -256 -120 -261 -30 -11 -11 -23 36 -23 28
0 50 5 50 10 0 6 -6 10 -14 10 -22 0 -27 15 -15 49 10 30 13 31 65 31 49 0 55
-2 64 -26 14 -36 12 -54 -5 -54 -8 0 -15 -4 -15 -10 0 -6 32 -10 75 -10 76 0
92 7 53 25 -15 7 -40 51 -82 147 -34 75 -64 140 -68 144 -4 4 -15 -10 -24 -32z
m25 -117 l20 -47 -44 0 c-43 0 -44 1 -35 25 6 14 15 37 20 51 13 32 13 31 39
-29z"/>
<path d="M1068 2170 c21 -9 22 -14 22 -138 0 -123 -1 -130 -22 -145 -22 -15
-19 -16 55 -16 73 -1 101 10 57 22 -19 5 -20 14 -20 136 0 127 1 132 23 141
16 6 0 9 -58 9 -58 0 -74 -3 -57 -9z"/>
<path d="M1460 2173 c33 -12 40 -36 40 -137 0 -120 -5 -142 -33 -152 -29 -10
112 -18 171 -9 106 16 130 112 37 151 -27 11 -28 13 -10 20 58 21 71 69 30
109 -23 24 -30 25 -137 24 -62 0 -106 -3 -98 -6z m174 -29 c35 -35 12 -90 -41
-100 l-33 -6 0 61 c0 61 0 61 29 61 16 0 37 -7 45 -16z m9 -141 c19 -18 22
-54 7 -83 -12 -23 -58 -35 -76 -19 -15 12 -20 110 -7 123 10 10 55 -3 76 -21z"/>
<path d="M2578 2164 c21 -14 22 -23 22 -129 0 -121 -4 -145 -26 -145 -8 0 -14
-4 -14 -10 0 -5 24 -10 53 -9 50 0 51 1 30 16 -21 14 -23 23 -23 115 0 119 -5
120 106 -27 44 -57 85 -104 92 -105 9 0 12 36 12 145 0 142 1 146 23 155 17 7
10 9 -33 9 -43 0 -50 -2 -32 -9 20 -9 22 -16 22 -95 0 -47 -2 -85 -4 -85 -2 0
-36 43 -76 95 l-73 95 -51 0 c-48 0 -50 -1 -28 -16z"/>
<path d="M3135 2173 c31 -8 35 -21 35 -140 0 -119 -4 -143 -25 -143 -8 0 -17
-4 -20 -10 -4 -6 37 -10 117 -10 l123 0 16 45 c18 48 11 61 -10 21 -25 -46
-111 -63 -131 -27 -5 11 -10 40 -10 65 0 46 0 46 35 46 27 0 37 -6 49 -27 15
-27 15 -26 15 42 0 56 -2 65 -10 45 -12 -31 -26 -40 -61 -40 -27 0 -28 1 -28
60 l0 60 48 0 c55 0 67 -7 81 -40 9 -23 10 -21 10 18 l1 42 -127 -1 c-71 -1
-119 -4 -108 -6z"/>
<path d="M3690 2133 l1 -48 14 32 c15 36 41 46 99 41 l37 -3 -90 -133 c-50
-73 -91 -138 -91 -143 0 -5 58 -9 135 -9 122 0 135 2 135 18 0 9 3 35 6 57 l7
40 -25 -35 c-26 -38 -71 -59 -132 -59 -48 -1 -49 -4 52 146 43 65 82 124 86
131 6 9 -20 12 -113 12 l-121 0 0 -47z"/>
</g>
</svg>
