<?xml version="1.0" encoding="UTF-8"?>
<svg xmlns="http://www.w3.org/2000/svg" xmlns:xlink="http://www.w3.org/1999/xlink" width="86px" height="95px" viewBox="0 0 86 95" version="1.1">
<g id="surface1">
<path style=" stroke:none;fill-rule:nonzero;fill:rgb(0%,0%,0%);fill-opacity:1;" d="M 22.085938 0.277344 C 21.71875 0.425781 21.148438 0.871094 20.8125 1.261719 C 20.242188 1.910156 19.835938 3.191406 15.03125 19.128906 L 9.84375 36.3125 L 14.933594 64.402344 C 19.046875 87.1875 20.089844 92.644531 20.425781 93.273438 C 20.710938 93.832031 21.078125 94.183594 21.71875 94.515625 L 22.609375 95 L 36.53125 94.960938 C 50.304688 94.90625 50.476562 94.90625 51.148438 94.515625 C 52.625 93.664062 52.203125 95.574219 57.765625 64.757812 C 60.554688 49.390625 62.820312 36.625 62.820312 36.367188 C 62.820312 35.734375 52.828125 2.671875 52.355469 1.761719 C 52.121094 1.316406 51.683594 0.835938 51.230469 0.554688 L 50.476562 0.09375 L 36.617188 0.0546875 C 24.976562 0.0195312 22.660156 0.0546875 22.085938 0.277344 Z M 39.640625 25.511719 L 39.640625 32.84375 L 49.550781 32.84375 L 49.550781 40.265625 L 39.640625 40.265625 L 39.640625 62.15625 L 33.089844 62.15625 L 33.089844 40.265625 L 23.179688 40.265625 L 23.179688 32.84375 L 33.089844 32.84375 L 33.089844 18.183594 L 39.640625 18.183594 Z M 39.640625 25.511719 "/>
<path style=" stroke:none;fill-rule:nonzero;fill:rgb(0%,0%,0%);fill-opacity:1;" d="M 54.4375 0.5 C 55.09375 0.871094 55.445312 1.226562 55.714844 1.761719 C 56.117188 2.5625 65.929688 34.902344 66.09375 36.015625 C 66.179688 36.496094 64.835938 44.234375 61.140625 64.679688 C 55.53125 95.703125 56 93.664062 54.4375 94.574219 L 53.699219 95 L 63.425781 95 L 64.296875 94.515625 C 64.921875 94.183594 65.289062 93.8125 65.574219 93.273438 C 65.910156 92.644531 66.953125 87.113281 71.066406 64.402344 L 76.15625 36.3125 L 70.96875 19.128906 C 65.859375 2.1875 65.792969 1.929688 65.105469 1.1875 C 64.703125 0.722656 64.148438 0.335938 63.742188 0.203125 C 63.324219 0.0742188 61.273438 0 58.300781 0 L 53.515625 0 Z M 54.4375 0.5 "/>
</g>
</svg>
